<?xml version="1.0" standalone="no"?>
<!DOCTYPE svg PUBLIC "-//W3C//DTD SVG 20010904//EN"
 "http://www.w3.org/TR/2001/REC-SVG-20010904/DTD/svg10.dtd">
<svg version="1.0" xmlns="http://www.w3.org/2000/svg"
 width="629.000000pt" height="652.000000pt" viewBox="0 0 629.000000 652.000000"
 preserveAspectRatio="xMidYMid meet">

<g transform="translate(0.000000,652.000000) scale(0.100000,-0.100000)"
fill="#000000" stroke="none">
<path d="M1018 6380 c-183 -38 -320 -98 -453 -197 -216 -161 -363 -375 -433
-630 l-27 -98 -3 -2115 c-2 -1527 0 -2137 8 -2194 16 -110 54 -236 100 -332
99 -205 301 -409 508 -513 91 -46 254 -98 347 -111 55 -7 325 -10 850 -8 l770
3 -125 74 c-69 40 -269 158 -445 261 -176 103 -423 248 -550 322 -126 75 -374
220 -550 323 -346 202 -397 237 -480 327 -122 131 -182 279 -196 478 -12 185
-12 2602 1 2690 30 212 146 406 314 524 34 24 266 157 516 296 893 497 1525
852 1535 862 6 6 1 6 -12 -1 -16 -8 -236 -11 -780 -9 -417 1 -738 3 -713 5 25
3 50 9 55 14 7 7 1 9 -17 5 -20 -3 -25 -1 -21 10 6 16 -12 19 -22 4 -3 -5 -12
-10 -18 -9 -8 0 -7 3 2 6 11 4 11 7 0 14 -7 4 115 8 271 9 156 0 286 3 289 5
2 3 -139 5 -315 4 -270 0 -333 -3 -406 -19z"/>
<path d="M3490 6396 c0 -2 7 -7 16 -10 8 -3 12 -2 9 4 -6 10 -25 14 -25 6z"/>
<path d="M4488 6393 c34 -2 88 -2 120 0 31 2 3 3 -63 3 -66 0 -92 -1 -57 -3z"/>
<path d="M4712 6395 c2 -3 104 -5 226 -5 148 -1 224 -5 228 -12 5 -7 -1 -9
-18 -5 -18 5 -28 2 -32 -8 -3 -8 -1 -15 3 -15 5 0 11 4 13 9 2 4 12 5 23 0
l20 -8 -20 -1 c-17 -2 -16 -3 5 -10 14 -4 -328 -8 -760 -9 -442 -1 -780 -5
-775 -10 10 -8 246 -140 1385 -774 316 -176 602 -339 636 -362 176 -125 288
-319 314 -546 8 -66 10 -491 7 -1419 -4 -1481 0 -1386 -77 -1545 -50 -105
-121 -194 -210 -265 -63 -50 -353 -223 -1560 -929 -423 -247 -534 -314 -555
-334 -5 -6 7 -1 28 11 l38 22 778 0 c856 0 854 0 1029 62 394 139 671 458 747
860 14 74 15 321 13 2223 l-3 2140 -27 90 c-62 212 -154 372 -293 510 -176
177 -378 282 -615 320 -89 14 -561 23 -548 10z m541 -22 c-7 -2 -19 -2 -25 0
-7 3 -2 5 12 5 14 0 19 -2 13 -5z"/>
<path d="M3015 6174 c-43 -10 -198 -90 -554 -284 -272 -148 -497 -267 -500
-264 -3 3 1 9 8 14 8 5 -6 7 -36 4 -43 -3 -50 -1 -49 14 1 12 -7 17 -26 16
-16 0 -28 3 -28 8 0 4 -8 5 -17 2 -14 -5 -13 -2 3 13 12 10 30 24 40 31 49 33
-92 -44 -576 -311 -289 -159 -546 -305 -571 -323 -103 -75 -189 -194 -235
-325 l-29 -84 -3 -1377 c-3 -1544 -7 -1455 70 -1608 33 -65 62 -104 123 -165
74 -74 107 -96 430 -285 660 -385 672 -392 1500 -880 328 -193 363 -210 486
-229 120 -20 227 -7 347 42 33 13 232 125 443 249 787 463 1172 688 1454 853
263 153 298 177 370 250 93 92 145 181 175 301 19 75 20 116 20 1431 0 1513 3
1436 -71 1590 -42 88 -118 178 -197 237 -26 18 -303 175 -617 348 -618 342
-635 351 -635 344 0 -3 14 -13 30 -21 30 -15 30 -16 13 -39 -10 -13 -21 -19
-24 -14 -4 6 -14 2 -25 -10 -11 -10 -29 -25 -42 -31 -26 -14 -28 -13 -594 296
-265 144 -353 188 -414 203 -89 23 -183 24 -269 4z m195 2 c0 -3 -4 -8 -10
-11 -5 -3 -10 -1 -10 4 0 6 5 11 10 11 6 0 10 -2 10 -4z m87 -22 c-3 -3 -12
-4 -19 -1 -8 3 -5 6 6 6 11 1 17 -2 13 -5z m-118 -379 c47 -24 55 -74 19 -112
-58 -62 -148 11 -107 88 8 16 34 34 57 38 2 1 16 -6 31 -14z m1251 -45 c13 -8
13 -10 -2 -10 -9 0 -20 5 -23 10 -8 13 5 13 25 0z m-1878 -198 c8 -8 5 -9 -11
-5 -12 3 -24 9 -26 13 -8 12 23 6 37 -8z m24 -34 c47 -32 78 -97 71 -150 -11
-80 -82 -142 -158 -136 l-47 3 -110 -173 -110 -173 16 -31 c20 -41 20 -110 -1
-141 -16 -25 -15 -27 112 -209 l129 -183 71 -3 71 -3 0 -39 0 -40 -92 1 -93 0
-141 197 -140 197 -37 -3 c-45 -4 -99 12 -122 37 -16 19 -20 18 -128 -34 -375
-178 -472 -226 -474 -237 -11 -76 -17 -91 -50 -123 -20 -19 -42 -35 -50 -35
-10 0 -13 -49 -13 -260 l0 -261 156 -184 156 -183 103 -4 c57 -1 106 -6 110
-9 3 -4 -2 -20 -12 -38 -18 -31 -18 -31 -103 -31 -47 0 -90 -4 -96 -8 -5 -4
-78 -89 -162 -189 l-152 -182 0 -263 1 -263 32 -20 c44 -28 77 -81 77 -125 0
-35 2 -37 95 -91 97 -56 102 -63 87 -116 -7 -21 -11 -19 -111 37 l-105 59 -30
-22 c-17 -12 -49 -22 -80 -24 -68 -6 -114 19 -144 78 -40 76 -18 157 56 204
l31 20 1 276 0 276 122 144 c67 79 141 167 164 195 l43 50 -164 193 -165 192
0 272 -1 272 -31 20 c-74 47 -96 128 -56 204 42 81 147 107 222 56 l37 -25
289 138 c284 135 289 138 290 167 0 17 8 46 19 65 28 53 64 74 134 80 l61 5
108 172 109 172 -15 30 c-22 41 -20 99 4 144 11 20 17 37 13 37 -3 0 4 11 16
24 20 21 30 23 88 21 47 -3 74 -10 99 -27z m865 -35 c33 -20 59 -68 59 -110 0
-67 -77 -132 -141 -118 -72 16 -121 94 -99 160 25 75 113 108 181 68z m688
-11 c12 -22 -3 -42 -31 -42 -24 0 -34 26 -18 45 17 20 37 19 49 -3z m-1157
-29 c22 -20 23 -70 1 -95 -36 -40 -113 -8 -113 47 0 54 71 85 112 48z m-302
-47 c0 -39 -6 -30 -13 19 -4 27 -3 35 3 25 5 -8 10 -28 10 -44z m1285 -236
l145 -220 46 0 c84 0 134 -38 159 -124 11 -38 13 -39 196 -123 101 -46 242
-111 312 -144 l128 -60 31 22 c20 14 51 24 85 27 45 4 59 0 92 -21 97 -64 93
-199 -6 -262 l-32 -20 -1 -261 c0 -188 -3 -263 -12 -272 -17 -17 -44 -15 -62
4 -14 13 -16 52 -16 272 l-1 257 -31 20 c-44 28 -69 65 -75 113 -5 40 -8 43
-72 73 -137 65 -517 237 -538 243 -17 5 -33 0 -60 -21 -30 -23 -47 -28 -97
-29 l-60 -1 -136 -194 -137 -194 -71 -3 -72 -3 0 41 0 40 43 0 c52 0 45 -7
172 175 54 77 107 152 118 167 19 25 19 29 3 68 -21 52 -20 77 3 122 l18 37
-129 198 c-172 263 -164 247 -132 272 15 12 31 21 36 21 5 0 74 -99 153 -220z
m-1607 155 c12 -25 7 -55 -9 -55 -5 0 -9 6 -10 13 0 6 -3 24 -5 40 -6 34 9 35
24 2z m-438 0 c15 -18 6 -45 -13 -45 -8 0 -20 7 -27 15 -10 12 -10 18 0 30 16
19 24 19 40 0z m2468 -66 c4 -30 -22 -46 -44 -28 -17 14 -18 46 -1 52 25 11
42 1 45 -24z m-1177 -65 c36 -18 63 -75 54 -113 -9 -38 -53 -80 -91 -87 -42
-8 -88 19 -109 62 -19 40 -19 58 0 94 30 58 86 75 146 44z m-1751 -14 c0 -5
-4 -10 -9 -10 -6 0 -13 5 -16 10 -3 6 1 10 9 10 9 0 16 -4 16 -10z m2910 -162
c0 -85 -3 -106 -21 -135 -12 -19 -24 -32 -27 -29 -3 3 2 14 11 24 14 15 17 41
17 136 0 76 4 115 10 111 6 -3 10 -51 10 -107z m536 101 c10 -17 -23 -46 -37
-32 -7 7 -9 19 -6 27 7 18 33 21 43 5z m-204 -11 c-5 -5 -45 -11 -90 -15 -73
-5 -82 -4 -82 11 0 15 12 17 91 15 53 -1 87 -5 81 -11z m76 -81 c4 -22 -27
-35 -38 -16 -10 15 7 42 24 36 6 -2 12 -11 14 -20z m-124 -2 c4 -12 -6 -15
-59 -15 -59 0 -83 8 -68 24 3 3 32 6 64 6 41 0 58 -4 63 -15z m-1408 -84 c14
-6 30 -8 36 -5 7 5 8 2 3 -6 -6 -10 -3 -12 11 -8 10 2 33 -1 49 -8 26 -11 -4
-13 -204 -14 -129 0 -232 2 -229 5 3 3 33 10 67 16 34 5 70 14 79 19 9 5 25
11 36 14 11 4 16 12 12 22 -5 12 0 14 27 9 17 -4 43 -2 57 3 22 8 25 7 28 -13
2 -12 14 -27 28 -34z m-1658 33 c15 -10 22 -25 22 -48 0 -40 -15 -56 -55 -56
-40 0 -55 16 -55 56 0 32 28 64 55 64 6 0 21 -7 33 -16z m3042 -36 c-44 -18
-100 -20 -100 -3 0 12 14 15 63 14 52 0 58 -2 37 -11z m458 -50 c7 -7 12 -21
12 -33 0 -47 -59 -61 -95 -23 -21 22 -21 22 -1 45 21 25 65 30 84 11z m-1474
-12 c15 -7 17 -6 11 4 -5 9 -4 11 4 6 6 -4 9 -11 6 -16 -3 -5 1 -12 8 -17 22
-13 45 -56 48 -88 5 -71 0 -86 -53 -137 l-53 -52 -3 -401 -3 -402 115 -189
c62 -104 179 -295 258 -424 l145 -234 -41 -58 c-23 -32 -43 -57 -46 -58 -3 0
-19 24 -36 53 -17 28 -132 216 -256 417 -124 201 -236 385 -249 410 l-24 45 0
446 0 445 28 45 c15 24 20 34 9 22 -12 -14 -23 -18 -32 -13 -8 5 -18 6 -24 3
-5 -3 -6 -2 -3 4 4 5 -5 16 -20 24 l-26 14 29 6 c16 4 -92 7 -241 7 -148 0
-256 -3 -240 -7 l30 -7 -32 -8 c-17 -4 -37 -13 -43 -21 -14 -16 -35 -10 -73
22 -16 13 -33 23 -39 23 -6 0 4 -10 22 -22 18 -13 43 -36 54 -51 20 -28 21
-40 24 -473 2 -416 1 -447 -16 -487 -18 -40 -82 -145 -392 -647 -365 -590
-604 -979 -623 -1015 -43 -82 -22 -211 45 -271 58 -54 80 -58 299 -62 438 -8
699 38 974 172 325 159 600 409 892 811 44 61 153 211 242 334 l163 224 -12
41 c-21 72 -79 208 -96 228 -25 27 -73 23 -106 -8 -26 -26 -28 -26 -53 -10
-25 16 -25 17 -9 49 44 85 113 137 183 137 82 0 135 -56 188 -200 31 -83 16
-90 121 54 71 98 121 136 185 143 118 14 167 -111 76 -196 -27 -25 -52 -27
-69 -5 -8 8 -21 19 -31 25 -25 13 -69 -27 -143 -131 l-60 -82 13 -46 c21 -78
71 -189 98 -216 39 -40 78 -35 125 15 l40 42 25 -26 26 -25 -22 -36 c-34 -55
-115 -122 -164 -135 -33 -10 -54 -10 -83 -2 -69 19 -104 60 -149 171 l-33 81
-132 -193 c-457 -666 -724 -937 -1142 -1158 l-113 -60 615 2 615 3 45 25 c24
14 58 44 74 68 25 35 31 55 34 113 3 43 -1 82 -9 102 -7 17 -75 132 -151 254
-76 123 -138 227 -138 233 0 13 70 110 79 110 3 0 29 -37 57 -82 28 -46 102
-164 163 -263 64 -103 118 -203 127 -234 22 -75 15 -189 -17 -256 -34 -73
-121 -157 -194 -186 l-60 -24 -1200 0 -1200 0 -58 27 c-82 38 -126 77 -166
142 -60 101 -72 202 -35 316 8 25 106 194 217 375 l203 330 -258 3 -258 2 0
49 c0 49 2 52 156 243 85 106 176 219 201 251 l45 59 -22 31 c-23 32 -122 158
-290 371 -83 105 -90 117 -90 159 l0 45 418 4 c229 3 420 2 424 -1 4 -3 8 -67
9 -141 l1 -135 -49 -3 -50 -3 -7 50 c-4 27 -15 60 -25 73 -19 23 -21 23 -249
23 l-230 1 18 -26 c10 -14 86 -112 169 -219 83 -107 151 -201 151 -210 0 -17
-18 -41 -232 -303 l-128 -158 199 0 200 0 44 73 c24 39 140 227 256 416 l211
345 0 411 0 412 -32 23 c-48 32 -70 67 -76 116 -6 53 11 96 49 128 15 13 25
26 22 29 -9 10 901 3 921 -7z m1134 -23 c-38 -2 -98 -2 -135 0 -38 2 -7 3 67
3 74 0 105 -1 68 -3z m-244 -58 c-28 -37 -64 -63 -64 -47 0 9 78 82 87 82 2 0
-8 -16 -23 -35z m867 4 c9 -18 7 -25 -10 -43 -17 -16 -25 -18 -39 -10 -19 12
-27 37 -18 60 8 22 54 17 67 -7z m-2154 -75 c-3 -3 -12 -4 -19 -1 -8 3 -5 6 6
6 11 1 17 -2 13 -5z m-2252 -49 c0 -27 -3 -30 -30 -30 -24 0 -31 5 -33 24 -4
27 13 42 43 39 15 -2 20 -11 20 -33z m1004 -103 c5 -10 6 -23 2 -30 -11 -18
-450 -224 -469 -220 -10 2 -17 13 -17 27 0 21 25 36 225 132 124 59 230 108
237 109 7 0 17 -8 22 -18z m1056 -86 c4 -39 5 -224 3 -411 l-3 -340 -28 -75
c-14 -41 -33 -79 -40 -85 -14 -10 -17 -16 -17 -37 0 -7 -5 -5 -11 5 -5 9 -16
17 -24 17 -10 0 -5 18 18 68 l32 67 6 435 c3 239 6 436 7 436 1 1 13 -1 26 -3
22 -5 25 -11 31 -77z m1129 -233 c7 -20 4 -23 -23 -23 l-30 0 -5 -332 c-3
-183 -6 -351 -6 -373 -1 -22 1 -55 5 -72 l7 -33 82 0 c89 0 100 -4 110 -37 7
-23 6 -23 -93 -23 l-101 0 0 -80 c0 -44 -4 -80 -9 -80 -35 0 -41 13 -41 86 l0
74 -53 0 c-47 0 -55 3 -65 24 -6 13 -8 27 -5 30 4 3 33 6 65 6 l58 0 0 405 0
405 -30 0 c-16 0 -30 4 -30 10 0 5 19 48 42 95 l43 85 36 -72 c20 -40 40 -83
43 -95z m-2179 -3 c9 -15 -14 -40 -31 -33 -22 8 -18 43 5 43 11 0 23 -5 26
-10z m2925 -20 c0 -24 -5 -31 -27 -36 -100 -22 -163 -59 -212 -126 -18 -24
-63 -105 -102 -180 -38 -76 -72 -138 -74 -138 -2 0 -15 5 -29 11 l-25 12 74
146 c105 207 179 285 310 327 68 22 85 18 85 -16z m-1565 -40 c8 -27 -12 -52
-39 -48 -21 3 -32 28 -22 54 8 22 54 18 61 -6z m-1907 -211 c2 -186 0 -218
-13 -223 -39 -15 -45 1 -47 128 -5 304 -3 320 34 314 23 -3 23 -3 26 -219z
m-593 161 c0 -18 -6 -26 -23 -28 -27 -4 -40 22 -22 44 19 22 45 13 45 -16z
m4653 7 c2 -10 -3 -17 -12 -17 -18 0 -29 16 -21 31 9 14 29 6 33 -14z m162 -2
c0 -8 -7 -15 -15 -15 -8 0 -15 7 -15 15 0 8 7 15 15 15 8 0 15 -7 15 -15z
m170 0 c0 -8 -7 -15 -15 -15 -8 0 -15 7 -15 15 0 8 7 15 15 15 8 0 15 -7 15
-15z m-2628 -132 c27 -24 23 -69 -8 -89 -24 -16 -27 -16 -52 3 -34 25 -39 56
-13 82 25 25 48 27 73 4z m2176 -15 c19 -19 14 -56 -8 -70 -11 -7 -21 -24 -21
-38 -2 -24 -2 -25 -6 -2 -3 13 -13 32 -24 43 -33 33 -19 79 26 79 12 0 26 -5
33 -12z m122 -7 c0 -26 -17 -36 -35 -21 -18 15 -8 40 16 40 12 0 19 -7 19 -19z
m-4830 -96 c0 -8 -7 -15 -15 -15 -8 0 -15 7 -15 15 0 8 7 15 15 15 8 0 15 -7
15 -15z m334 -11 c21 -20 20 -37 -3 -58 -23 -21 -49 -11 -58 22 -4 18 -1 29
12 39 24 17 30 16 49 -3z m4676 6 c0 -5 -4 -10 -10 -10 -5 0 -10 5 -10 10 0 6
5 10 10 10 6 0 10 -4 10 -10z m-895 -29 c7 -12 -12 -24 -25 -16 -11 7 -4 25
10 25 5 0 11 -4 15 -9z m933 -136 c2 -2 -35 -5 -82 -7 -61 -2 -82 0 -72 7 12
9 145 9 154 0z m-4686 -215 l43 -7 -43 -2 c-43 -1 -46 1 -153 112 -60 61 -109
114 -109 117 0 2 49 -44 109 -104 97 -96 115 -110 153 -116z m2251 138 c27
-32 23 -92 -9 -117 -37 -29 -70 -26 -106 9 -25 26 -29 36 -24 62 3 17 12 38
18 46 31 36 90 37 121 0z m2188 -27 c-22 -26 -59 -65 -81 -85 -40 -36 -40 -36
-133 -36 -65 0 -88 3 -77 10 9 7 45 8 90 5 l75 -6 80 80 c44 45 81 81 83 81 2
0 -14 -22 -37 -49z m-4711 -151 c0 -11 -4 -20 -9 -20 -11 0 -22 26 -14 34 12
12 23 5 23 -14z m448 -67 c-27 -2 -69 -2 -95 0 -27 2 -5 3 47 3 52 0 74 -1 48
-3z m4035 0 c-9 -3 -10 -9 -1 -22 15 -24 3 -51 -22 -51 -24 0 -35 22 -24 48 4
9 6 20 6 25 -1 4 10 7 26 6 15 0 22 -3 15 -6z m-4599 -29 c22 -8 20 -41 -2
-53 -22 -12 -42 3 -42 29 0 28 14 36 44 24z m2407 -37 c22 -14 39 -38 49 -64
13 -38 12 -46 -3 -78 -17 -37 -69 -75 -100 -75 -34 0 -88 32 -102 61 -32 60
-8 140 48 164 45 20 69 18 108 -8z m-1840 3 c21 -12 25 -50 7 -68 -16 -16 -43
-15 -60 1 -7 7 -29 18 -48 24 l-35 11 31 1 c17 1 39 10 49 21 21 23 29 24 56
10z m4564 -19 l24 -18 -29 -22 c-35 -25 -48 -26 -70 -6 -13 12 -58 18 -196 24
l-179 8 176 1 c143 2 179 5 189 17 17 20 57 19 85 -4z m-2369 -16 c20 -31 10
-63 -23 -71 -51 -13 -82 38 -47 77 23 26 50 24 70 -6z m-2409 -112 c-20 -2
-52 -2 -70 0 -17 2 0 4 38 4 39 0 53 -2 32 -4z m4623 -68 c0 -8 -9 -15 -20
-15 -20 0 -26 11 -13 23 12 13 33 7 33 -8z m-4492 -32 c-10 -2 -28 -2 -40 0
-13 2 -5 4 17 4 22 1 32 -1 23 -4z m2537 -4 c24 -6 52 -21 63 -32 11 -12 65
-95 121 -185 l101 -163 -67 -86 c-77 -98 -123 -126 -253 -148 -199 -36 -390
42 -602 244 -59 57 -108 107 -108 111 0 4 26 10 59 13 73 6 165 49 246 115
152 123 298 167 440 131z m1755 -55 c36 -37 55 -61 44 -55 -12 6 -41 33 -64
60 l-41 50 -142 4 -142 3 140 2 141 2 64 -66z m-2226 24 c23 -37 -35 -76 -70
-48 -18 16 -18 35 2 55 20 20 53 16 68 -7z m-556 -122 c66 -23 107 -57 262
-209 199 -196 300 -267 455 -319 59 -19 91 -23 197 -23 149 0 149 12 -7 -127
-108 -97 -304 -234 -400 -279 -56 -27 -60 -28 -85 -12 -54 34 -113 88 -162
147 -28 33 -54 61 -57 61 -3 0 -17 8 -31 18 -13 9 -21 17 -16 17 5 0 1 10 -10
22 -17 19 -17 21 -2 15 14 -5 12 3 -10 43 -15 26 -28 47 -30 45 -2 -2 1 -13 8
-24 9 -18 8 -21 -7 -18 -10 1 -24 6 -30 10 -18 12 -16 3 13 -56 47 -93 114
-185 189 -261 l74 -74 -117 -31 c-173 -45 -247 -53 -563 -54 -258 -1 -288 0
-313 16 -38 25 -60 76 -52 120 4 19 61 124 127 233 66 110 182 301 257 427
154 256 142 248 188 118 38 -105 66 -171 60 -140 -4 17 1 30 14 42 18 15 19
15 25 -4 4 -11 9 -19 11 -16 4 4 -66 216 -94 288 -6 15 -8 30 -5 33 11 11 70
6 111 -8z m2474 -13 c17 -15 18 -37 18 -282 l1 -266 31 -20 c47 -30 70 -68 75
-122 10 -125 -121 -204 -232 -138 l-42 24 -104 -59 c-108 -60 -110 -61 -123
-8 -6 25 -1 30 93 83 l98 56 6 45 c5 52 29 90 75 119 l31 20 1 263 c0 248 1
263 20 282 24 24 28 25 52 3z m453 -33 c10 -11 16 -20 13 -20 -3 0 -13 9 -23
20 -10 11 -16 20 -13 20 3 0 13 -9 23 -20z m150 -9 c9 -16 -8 -20 -55 -14 -34
5 -40 8 -25 14 28 11 73 11 80 0z m-4280 -246 l0 -220 -25 0 -25 0 -3 223 -2
223 27 -3 28 -3 0 -220z m-401 109 c30 -30 13 -74 -29 -74 -27 0 -45 18 -45
45 0 42 44 59 74 29z m4340 -57 c12 -9 17 -23 14 -42 -2 -25 -8 -31 -33 -33
-19 -3 -33 2 -42 14 -17 24 -17 30 7 54 24 24 30 24 54 7z m-4508 -48 c10 -17
-13 -36 -27 -22 -12 12 -4 33 11 33 5 0 12 -5 16 -11z m-161 -99 c0 -8 -10
-16 -22 -18 -18 -3 -23 2 -23 18 0 16 5 21 23 18 12 -2 22 -10 22 -18z m3990
-79 c7 -12 -12 -24 -25 -16 -11 7 -4 25 10 25 5 0 11 -4 15 -9z m-440 -252
c143 -233 151 -251 136 -300 -6 -21 -23 -47 -38 -58 -25 -20 -37 -21 -421 -21
l-395 0 64 49 c144 109 351 315 476 473 25 32 49 55 53 53 5 -3 61 -91 125
-196z m-3362 96 c1 -5 -6 -11 -15 -13 -11 -2 -18 3 -18 13 0 17 30 18 33 0z
m4562 -265 c-5 -8 -11 -8 -17 -2 -6 6 -7 16 -3 22 5 8 11 8 17 2 6 -6 7 -16 3
-22z m-4445 -85 c14 -17 5 -51 -16 -59 -22 -8 -54 11 -54 32 0 38 46 56 70 27z
m4348 -114 c6 -37 -26 -52 -52 -25 -12 12 -13 20 -5 35 15 28 53 21 57 -10z
m-440 -103 c-2 -15 -10 -23 -23 -23 -13 0 -21 8 -23 23 -3 18 1 22 23 22 22 0
26 -4 23 -22z m-3488 -13 c15 -18 5 -35 -20 -35 -22 0 -34 15 -26 35 7 19 30
19 46 0z m1296 -293 c43 -27 134 -84 202 -127 l123 -78 43 21 c55 28 91 28
146 0 l45 -23 203 128 203 127 70 0 c39 0 68 -4 65 -8 -3 -5 -118 -80 -256
-167 -202 -128 -249 -162 -245 -176 10 -31 -13 -94 -47 -126 -62 -60 -154 -60
-214 -2 -35 34 -59 96 -50 127 5 13 -45 49 -228 166 -129 82 -244 157 -257
167 -24 18 -24 19 47 19 67 0 75 -2 150 -48z m170 2 l39 -36 -52 33 c-56 34
-61 39 -39 39 7 0 31 -16 52 -36z m1221 -175 c14 -14 6 -39 -12 -39 -18 0 -28
17 -21 35 6 18 18 19 33 4z m-1809 -122 c4 -20 -25 -34 -40 -19 -15 15 -1 44
19 40 10 -2 19 -11 21 -21z m1600 -19 c28 -28 7 -78 -33 -78 -42 0 -59 44 -29
74 18 19 45 21 62 4z m-1600 -121 c4 -20 -25 -34 -40 -19 -15 15 -1 44 19 40
10 -2 19 -11 21 -21z m1250 -125 c3 -16 -2 -22 -16 -22 -22 0 -32 17 -24 38 7
20 37 9 40 -16z m-993 -27 c0 -23 -34 -33 -45 -14 -13 20 1 40 24 37 13 -2 21
-10 21 -23z m625 -165 c0 -13 -7 -20 -20 -20 -13 0 -20 7 -20 20 0 13 7 20 20
20 13 0 20 -7 20 -20z"/>
<path d="M2399 5499 l-24 -20 30 17 c39 24 40 24 28 24 -6 0 -21 -9 -34 -21z"/>
<path d="M5022 4848 c-25 -25 0 -64 32 -52 21 8 21 50 0 58 -20 8 -18 8 -32
-6z"/>
<path d="M3432 2834 c-32 -13 -56 -62 -45 -92 22 -63 94 -82 138 -37 30 30 32
73 5 107 -24 31 -59 39 -98 22z"/>
<path d="M2621 2540 c0 -8 4 -22 9 -30 12 -18 12 -2 0 25 -6 13 -9 15 -9 5z"/>
<path d="M2447 2502 c-40 -44 -6 -122 52 -122 57 0 94 86 53 123 -25 23 -85
22 -105 -1z"/>
<path d="M2591 2465 c0 -5 3 -16 8 -23 7 -11 9 -10 14 3 4 9 3 14 -2 10 -5 -3
-12 1 -14 7 -3 7 -6 9 -6 3z"/>
<path d="M2876 2404 c-34 -33 -6 -88 43 -82 36 4 52 49 26 78 -22 24 -48 26
-69 4z"/>
<path d="M3047 2214 c-12 -12 -8 -41 8 -54 20 -17 47 5 43 34 -3 21 -37 34
-51 20z"/>
<path d="M2450 2155 c-46 -49 -24 -126 40 -140 32 -7 84 15 94 40 34 91 -70
168 -134 100z"/>
<path d="M4250 5835 c0 -2 18 -14 40 -25 22 -11 40 -18 40 -15 0 2 -18 14 -40
25 -22 11 -40 18 -40 15z"/>
<path d="M1894 5754 c-18 -14 -18 -15 4 -4 12 6 22 13 22 15 0 8 -5 6 -26 -11z"/>
<path d="M4240 5696 c0 -3 9 -10 20 -16 11 -6 20 -8 20 -6 0 3 -9 10 -20 16
-11 6 -20 8 -20 6z"/>
</g>
</svg>
